<svg width="180" height="180" viewBox="0 0 180 180" fill="none" xmlns="http://www.w3.org/2000/svg">
<rect width="180" height="180" fill="#794CF8"/>
<path fill-rule="evenodd" clip-rule="evenodd" d="M91.2973 128.049C88.9557 126.155 88.9557 123.091 88.9557 116.964V35.3299C88.9557 29.2011 88.9557 26.1367 91.2973 24.2454C93.6389 22.3541 96.2742 22.9031 101.541 24.0069C127.093 29.3616 144 50.6732 144 76.1469C144 101.621 127.093 122.932 101.541 128.288C96.2742 129.391 93.6409 129.943 91.2973 128.049Z" fill="white"/>
<path fill-rule="evenodd" clip-rule="evenodd" d="M39.1024 103.99C36.6391 102.095 36.6391 99.022 36.6391 92.8752V35.8886C36.6391 29.7425 36.6391 26.6694 39.1024 24.7748C41.5658 22.8802 44.1141 23.5357 49.2088 24.8481C68.3034 29.7644 80.5386 45.6027 80.5386 64.3822C80.5386 83.1617 68.3034 98.9993 49.2088 103.916C44.1141 105.228 41.5665 105.884 39.1024 103.99Z" fill="white"/>
<path d="M58.5878 156.234C71.0625 156.234 81.1756 146.164 81.1756 133.742C81.1756 121.321 71.0625 111.251 58.5878 111.251C46.1129 111.251 36 121.321 36 133.742C36 146.164 46.1129 156.234 58.5878 156.234Z" fill="white"/>
</svg>
